HIERARCHY
ROOT Hips
{
	OFFSET -0.001795 -0.223333 0.028219
	CHANNELS 6 Xposition Yposition Zposition Zrotation Yrotation Xrotation 
	JOINT LeftUpLeg
	{
		OFFSET 0.069520 -0.091406 -0.006815
		CHANNELS 3 Zrotation Yrotation Xrotation
		JOINT LeftLeg
		{
			OFFSET 0.034277 -0.375199 -0.004496
			CHANNELS 3 Zrotation Yrotation Xrotation
			JOINT LeftFoot
			{
				OFFSET -0.013596 -0.397961 -0.043693
				CHANNELS 3 Zrotation Yrotation Xrotation
				JOINT LeftToe
				{
					OFFSET 0.026358 -0.055791 0.119288
					CHANNELS 3 Zrotation Yrotation Xrotation
					End Site
					{
						OFFSET 0.000000 0.000000 0.000000
					}
				}
			}
		}
	}
	JOINT RightUpLeg
	{
		OFFSET -0.067670 -0.090522 -0.004320
		CHANNELS 3 Zrotation Yrotation Xrotation
		JOINT RightLeg
		{
			OFFSET -0.038290 -0.382569 -0.008850
			CHANNELS 3 Zrotation Yrotation Xrotation
			JOINT RightFoot
			{
				OFFSET 0.015774 -0.398415 -0.042312
				CHANNELS 3 Zrotation Yrotation Xrotation
				JOINT RightToe
				{
					OFFSET -0.025372 -0.048144 0.123348
					CHANNELS 3 Zrotation Yrotation Xrotation
					End Site
					{
						OFFSET 0.000000 0.000000 0.000000
					}
				}
			}
		}
	}
	JOINT Spine
	{
		OFFSET -0.002533 0.108963 -0.026696
		CHANNELS 3 Zrotation Yrotation Xrotation
		JOINT Spine1
		{
			OFFSET 0.005487 0.135180 0.001092
			CHANNELS 3 Zrotation Yrotation Xrotation
			JOINT Spine2
			{
				OFFSET 0.001457 0.052922 0.025425
				CHANNELS 3 Zrotation Yrotation Xrotation
				JOINT Neck
				{
					OFFSET -0.002778 0.213870 -0.042857
					CHANNELS 3 Zrotation Yrotation Xrotation
					JOINT Head
					{
						OFFSET 0.005152 0.064970 0.051349
						CHANNELS 3 Zrotation Yrotation Xrotation
						End Site
						{
							OFFSET 0.000000 0.000000 0.000000
						}
					}
				}
				JOINT LeftShoulder
				{
					OFFSET 0.078845 0.121749 -0.034090
					CHANNELS 3 Zrotation Yrotation Xrotation
					JOINT LeftArm
					{
						OFFSET 0.090977 0.030469 -0.008868
						CHANNELS 3 Zrotation Yrotation Xrotation
						JOINT LeftForeArm
						{
							OFFSET 0.259612 -0.012772 -0.027456
							CHANNELS 3 Zrotation Yrotation Xrotation
							JOINT LeftHand
							{
								OFFSET 0.249234 0.008986 -0.001171
								CHANNELS 3 Zrotation Yrotation Xrotation
								End Site
								{
									OFFSET 0.000000 0.000000 0.000000
								}
							}
						}
					}
				}
				JOINT RightShoulder
				{
					OFFSET -0.081759 0.118833 -0.038615
					CHANNELS 3 Zrotation Yrotation Xrotation
					JOINT RightArm
					{
						OFFSET -0.096012 0.032551 -0.009143
						CHANNELS 3 Zrotation Yrotation Xrotation
						JOINT RightForeArm
						{
							OFFSET -0.253742 -0.013329 -0.021401
							CHANNELS 3 Zrotation Yrotation Xrotation
							JOINT RightHand
							{
								OFFSET -0.255298 0.007772 -0.005559
								CHANNELS 3 Zrotation Yrotation Xrotation
								End Site
								{
									OFFSET 0.000000 0.000000 0.000000
								}
							}
						}
					}
				}
			}
		}
	}
}
MOTION
Frames: 14
Frame Time: 0.050000
-0.843384 0.954290 0.472580 -2.593593 76.734499 -6.028351 -3.993446 -0.275858 -5.846599 -2.596337 -2.607151 16.684118 7.512570 13.602960 9.210472 0.000000 0.000000 0.000000 -4.552946 -3.798449 -17.600714 -10.637099 -12.950077 46.055715 4.373008 7.378673 -2.487168 0.000000 0.000000 0.000000 2.908250 -3.687205 19.363194 -3.278492 2.642208 -19.277116 2.728457 21.600910 32.711525 12.584994 6.546147 -34.926760 0.000000 0.000000 0.000000 -7.278139 -25.024483 -5.481298 -54.535680 -16.445686 -1.070968 -122.244595 -69.429269 71.315148 0.000000 0.000000 0.000000 22.817705 2.234999 21.491192 65.925950 33.712758 12.324593 99.373000 77.299572 115.229616 0.000000 0.000000 0.000000 
-0.874329 0.955474 0.481099 -1.074426 77.003946 -2.893755 -3.315278 -0.757050 -9.391748 -1.792819 -2.878228 17.385796 4.839029 11.407778 9.059435 0.000000 0.000000 0.000000 -5.743756 -3.358755 -13.896755 -9.130707 -11.704910 41.640370 4.131673 6.289245 -2.939732 0.000000 0.000000 0.000000 3.391641 -3.466276 18.390131 -2.948768 2.604396 -17.264741 2.140854 22.153615 30.197480 12.374331 6.200584 -32.874349 0.000000 0.000000 0.000000 -7.350547 -24.237620 -5.533928 -54.313711 -14.893202 -1.654428 -124.337230 -70.367298 75.454920 0.000000 0.000000 0.000000 23.730223 2.553330 22.484972 63.465058 33.072614 10.403069 98.771104 76.967607 113.067478 0.000000 0.000000 0.000000 
-0.904162 0.953536 0.490609 5.836507 78.601004 4.603356 -4.432167 -1.218835 -11.593252 -0.003717 -3.342625 18.111377 2.102297 8.118825 8.181641 0.000000 0.000000 0.000000 -6.554293 -2.937540 -9.232429 -6.449660 -9.829139 34.403937 4.358594 5.597950 -2.748664 0.000000 0.000000 0.000000 3.529498 -3.598187 18.537635 -3.600105 2.648050 -17.319616 2.780582 22.268043 29.456382 11.716598 6.400459 -31.489758 0.000000 0.000000 0.000000 -6.845797 -23.361994 -5.788039 -54.356618 -14.378804 -2.216868 -122.396469 -69.842121 72.710984 0.000000 0.000000 0.000000 24.028908 1.490130 22.374946 61.992277 32.125435 9.116966 92.383271 77.229435 105.810339 0.000000 0.000000 0.000000 
-0.934251 0.949429 0.501051 11.100239 79.523245 10.016458 -5.228157 -1.967747 -14.269647 1.018612 -4.045896 19.619452 1.131312 7.928287 8.976153 0.000000 0.000000 0.000000 -6.719744 -2.624060 -5.261990 -1.677209 -7.798122 25.255945 3.029562 -0.163237 -6.619412 0.000000 0.000000 0.000000 4.438225 -4.469392 20.080109 -4.200180 2.681437 -18.203723 2.101278 24.785072 28.726931 12.842467 5.811766 -30.371413 0.000000 0.000000 0.000000 -6.501451 -23.523880 -6.207540 -53.971397 -14.042929 -2.413504 -117.777092 -69.468012 66.841261 0.000000 0.000000 0.000000 26.119242 -0.968798 23.160757 59.717723 31.700702 7.123959 87.893223 76.352405 99.503359 0.000000 0.000000 0.000000 
-0.964892 0.944946 0.511423 16.124397 80.537706 15.123199 -5.885669 -2.920039 -16.987624 1.764558 -5.334520 22.519066 1.432050 7.556445 7.776139 0.000000 0.000000 0.000000 -6.168276 -2.396464 -3.839016 1.138845 -6.843459 19.967940 3.107620 -4.074631 -11.643042 0.000000 0.000000 0.000000 5.369060 -5.443835 21.649417 -4.085897 2.669175 -18.731001 2.221062 25.765229 29.109447 11.710240 6.490531 -31.208438 0.000000 0.000000 0.000000 -7.858385 -23.304667 -7.641843 -52.523682 -12.077359 -2.273369 -112.704846 -68.897776 62.243586 0.000000 0.000000 0.000000 27.503905 -2.925777 22.997623 57.342851 30.047176 4.768465 66.187053 74.136052 73.358730 0.000000 0.000000 0.000000 
-0.994572 0.941639 0.520770 18.293789 82.057084 17.385779 -4.866443 -4.245999 -20.790354 1.247127 -6.711479 25.742308 2.812114 9.875782 8.284653 0.000000 0.000000 0.000000 -5.780861 -2.395278 -4.301672 2.709585 -7.167551 18.279109 2.629584 -6.377331 -12.107638 0.000000 0.000000 0.000000 6.004388 -6.633105 23.374168 -4.086608 2.669862 -18.006969 2.691580 25.893695 27.855569 10.382931 6.707968 -29.618137 0.000000 0.000000 0.000000 -10.794759 -22.533945 -10.727884 -51.359019 -5.691816 -2.792272 -111.600347 -65.073457 58.459268 0.000000 0.000000 0.000000 26.181647 -1.843110 22.722954 56.370094 26.262553 3.146872 50.359529 73.107437 55.935638 0.000000 0.000000 0.000000 
-1.020892 0.941992 0.528063 24.565244 82.198355 24.594667 -4.327401 -5.468680 -23.694365 -2.300958 -7.569416 29.309504 5.833208 14.876709 9.666484 0.000000 0.000000 0.000000 -6.308080 -2.821710 -6.902227 2.934197 -7.732671 19.232719 2.450535 -6.065231 -11.845652 0.000000 0.000000 0.000000 6.203522 -6.935749 23.697329 -4.232320 2.666385 -17.306187 3.039153 26.924721 28.137931 9.460926 7.217089 -30.441119 0.000000 0.000000 0.000000 -12.990899 -23.572253 -12.968187 -51.729714 -0.810252 -3.482012 -109.948587 -61.476429 53.089936 0.000000 0.000000 0.000000 26.749394 -3.202821 22.459850 55.018789 24.056507 1.465972 41.539789 70.042466 44.806158 0.000000 0.000000 0.000000 
-1.043559 0.942473 0.533886 34.602819 82.635590 34.094554 -5.493181 -6.119655 -24.336929 -9.946581 -9.806056 37.715138 11.354003 21.670989 9.965753 0.000000 0.000000 0.000000 -6.613066 -3.076745 -7.121010 3.263934 -7.766802 18.633847 2.445327 -6.176237 -11.611043 0.000000 0.000000 0.000000 6.032302 -7.625250 24.983344 -3.876140 2.621035 -16.877771 3.089244 27.418403 29.432190 10.419474 6.903499 -29.910280 0.000000 0.000000 0.000000 -13.738214 -23.821000 -14.158648 -52.178548 2.476631 -4.445893 -112.064636 -59.806732 53.374496 0.000000 0.000000 0.000000 24.987796 -3.919235 20.654929 56.172394 23.112971 2.430149 33.421510 66.167472 35.232105 0.000000 0.000000 0.000000 
-1.064136 0.944323 0.539147 33.578085 83.188878 32.939417 -6.395593 -5.819755 -23.292887 -15.188780 -10.743004 42.593463 14.297759 25.985666 13.835707 0.000000 0.000000 0.000000 -5.817651 -2.988995 -8.583162 2.948298 -7.474619 18.356471 1.846565 -5.628649 -8.667455 0.000000 0.000000 0.000000 5.795552 -8.682802 26.893947 -5.267546 2.787415 -17.062830 4.856072 28.480690 30.342042 10.620971 6.641218 -28.191663 0.000000 0.000000 0.000000 -14.961242 -23.535119 -15.779574 -52.265417 5.088315 -4.914346 -109.912082 -57.915025 49.927341 0.000000 0.000000 0.000000 24.661535 -2.956104 21.204568 55.128157 24.827139 3.116801 17.523110 62.626533 20.624630 0.000000 0.000000 0.000000 
-1.083681 0.946113 0.544021 35.513263 83.960326 36.199878 -7.799796 -5.816135 -22.579812 -10.716248 -10.756829 39.585655 10.469911 21.986111 13.403170 0.000000 0.000000 0.000000 -5.035390 -3.371349 -12.110975 1.163553 -7.341364 20.185931 2.967213 -2.203235 -7.874981 0.000000 0.000000 0.000000 6.191002 -8.281357 25.863109 -6.411098 2.830860 -16.405624 5.601449 27.683603 31.701720 9.700075 7.337937 -29.402041 0.000000 0.000000 0.000000 -16.086764 -23.108914 -17.337834 -50.393527 5.749899 -4.199396 -108.584040 -59.898007 53.290029 0.000000 0.000000 0.000000 25.236271 -2.850227 21.934717 54.092017 26.901248 3.565632 5.246875 59.087337 10.844548 0.000000 0.000000 0.000000 
-1.102583 0.947841 0.548932 35.280462 84.720742 36.423539 -7.981611 -4.901802 -20.759076 -5.714682 -9.724289 34.642306 8.748156 18.739897 11.650223 0.000000 0.000000 0.000000 -5.847730 -4.383587 -14.298289 1.240303 -8.582572 22.584406 4.214281 0.251181 -9.559688 0.000000 0.000000 0.000000 4.362264 -7.970356 26.588377 -2.819286 2.506822 -16.482177 3.988653 28.404343 32.575736 11.687800 6.466800 -28.774850 0.000000 0.000000 0.000000 -16.016532 -23.021497 -18.057817 -49.205015 6.588252 -3.911650 -108.305698 -64.019283 58.866453 0.000000 0.000000 0.000000 26.132960 -2.765989 23.495147 53.547545 29.844624 4.236921 -3.927403 54.723016 4.297092 0.000000 0.000000 0.000000 
-1.120430 0.947867 0.554291 31.034065 83.965979 32.714969 -6.928236 -4.128966 -19.721980 -4.362505 -7.910708 30.485455 7.563173 17.774593 13.053901 0.000000 0.000000 0.000000 -7.107215 -5.936264 -17.595077 -2.497657 -9.895918 29.632959 5.623504 5.044252 -9.040080 0.000000 0.000000 0.000000 3.820132 -7.590176 26.387195 -3.176270 2.515850 -15.412073 4.189356 27.940520 31.876006 10.315467 6.728575 -28.079512 0.000000 0.000000 0.000000 -15.880378 -21.178349 -17.968142 -49.513568 5.094984 -3.702142 -106.006318 -67.191874 61.036620 0.000000 0.000000 0.000000 24.099186 -1.110896 22.579402 57.434906 30.194394 6.767045 -6.775642 50.016112 2.121252 0.000000 0.000000 0.000000 
-1.136801 0.947474 0.561329 31.663617 84.220015 33.900528 -6.060818 -4.370497 -20.555047 -3.396321 -7.053757 28.065407 6.250699 16.598331 13.310066 0.000000 0.000000 0.000000 -7.700493 -7.167818 -19.657962 -8.097205 -10.822034 36.935487 6.071529 7.374097 -8.422520 0.000000 0.000000 0.000000 2.814567 -7.555302 26.949182 -2.908973 2.485516 -15.801793 3.818503 27.764436 31.786067 10.539101 6.353580 -27.033957 0.000000 0.000000 0.000000 -15.690647 -20.174199 -18.475900 -48.965407 3.466382 -2.906563 -101.193516 -70.572123 60.795549 0.000000 0.000000 0.000000 24.192693 -0.031483 23.910767 59.367748 33.049926 8.749012 -9.788912 45.296947 0.076789 0.000000 0.000000 0.000000 
-1.152453 0.944147 0.570383 38.360842 85.302487 40.950202 -5.097365 -4.591105 -21.385773 -3.301167 -6.661336 26.861904 5.527292 15.854792 13.485658 0.000000 0.000000 0.000000 -9.017567 -7.783134 -18.792977 -12.017675 -11.135630 40.572309 5.118572 6.194573 -6.379145 0.000000 0.000000 0.000000 2.634653 -8.259433 28.117857 -2.384052 2.445643 -16.318150 3.260733 27.790198 31.694046 10.386231 6.591941 -27.649087 0.000000 0.000000 0.000000 -16.044089 -19.367585 -19.005493 -47.771733 2.773824 -2.457388 -101.549065 -71.581499 63.681926 0.000000 0.000000 0.000000 24.714834 0.215537 24.643406 60.341463 36.353356 11.021119 -11.614890 39.166489 -1.363892 0.000000 0.000000 0.000000 
